<?xml version="1.0" standalone="no"?>
<!DOCTYPE svg PUBLIC "-//W3C//DTD SVG 20010904//EN"
 "http://www.w3.org/TR/2001/REC-SVG-20010904/DTD/svg10.dtd">
<svg version="1.0" xmlns="http://www.w3.org/2000/svg"
 width="260.000000pt" height="260.000000pt" viewBox="0 0 260.000000 260.000000"
 preserveAspectRatio="xMidYMid meet">
<metadata>
Created by potrace 1.14, written by Peter Selinger 2001-2017
</metadata>
<g transform="translate(0.000000,260.000000) scale(0.100000,-0.100000)"
fill="#000000" stroke="none">
<path d="M1075 2584 c-262 -46 -504 -173 -695 -364 -250 -250 -380 -565 -380
-920 0 -355 130 -669 380 -920 248 -249 565 -380 920 -380 355 0 672 131 920
380 250 251 380 565 380 920 0 355 -130 670 -380 920 -194 194 -433 318 -699
364 -116 20 -334 20 -446 0z m110 -933 c4 -33 4 -64 1 -70 -4 -6 -106 -7 -276
-4 l-270 6 0 -71 0 -72 -65 0 -65 0 0 -205 0 -205 65 0 65 0 0 -65 0 -65 140
0 140 0 0 135 0 135 -70 0 -70 0 0 65 0 65 200 0 200 0 0 -265 0 -265 -335 0
-335 0 0 65 0 65 -65 0 -64 0 -3 68 -3 67 -67 3 -68 3 0 199 0 200 70 0 70 0
0 65 0 65 65 0 65 0 0 70 0 70 334 0 334 0 7 -59z m1035 -11 l0 -70 65 0 65 0
0 -65 0 -65 -130 0 -130 0 0 70 0 70 -140 0 -140 0 0 -70 0 -70 -65 0 -65 0 0
-205 0 -205 65 0 65 0 0 -65 0 -65 140 0 140 0 0 65 0 65 130 0 130 0 0 -65 0
-65 -65 0 -65 0 0 -65 0 -65 -270 0 -270 0 0 65 0 65 -65 0 -64 0 -3 68 -3 67
-67 3 -68 3 0 199 0 200 68 0 67 0 -3 69 -4 68 71 -5 71 -5 0 72 0 71 270 0
270 0 0 -70z"/>
</g>
</svg>
